<svg xmlns="http://www.w3.org/2000/svg" width="47" height="52" fill="none"><path fill="#fff" fill-rule="evenodd" d="M15.726 48.526c-4.488-1.272-9.187-1.913-13.745-2.501C1 45.902.088 46.589.018 47.558c-.14.97.561 1.856 1.473 1.98 4.418.565 8.975 1.17 13.253 2.395.911.265 1.893-.281 2.174-1.222.28-.94-.28-1.919-1.192-2.185ZM29.329 30.495c-7.223-7.443-15.357-13.928-22.44-21.57-.63-.715-1.752-.753-2.454-.086-.7.667-.77 1.788-.07 2.502 7.083 7.665 15.217 14.171 22.44 21.636a1.796 1.796 0 0 0 2.524.021c.63-.684.7-1.806 0-2.503ZM42.863 1.866l.63 12.781c0 .976.843 1.73 1.825 1.682.981-.048 1.682-.879 1.682-1.855l-.63-12.8A1.804 1.804 0 0 0 44.475.003c-.912.053-1.683.888-1.613 1.863Z" clip-rule="evenodd"/></svg>