<svg xmlns="http://www.w3.org/2000/svg" width="33" height="107" fill="none"><path fill="#fff" fill-rule="evenodd" d="M12.633 44.55c.079.464.235.926.392 1.388.706 2.493 1.491 5.4 2.903 7.546 1.883 2.814 4.002 3.902 6.12 3.878 2.982-.037 6.041-2.54 7.924-5.97 1.883-3.4 2.668-7.656 1.491-11.085-.784-2.35-2.51-4.355-5.492-5.448-3.374-1.26-6.59-.23-9.415 1.994-1.099.834-2.04 1.838-2.981 2.943-.236-1.454-.471-2.924-.707-4.413-.627-4.878-.784-10.004-.55-14.92.236-6.504 1.414-12.725 3.61-18.736.157-.555-.078-1.191-.549-1.42-.47-.228-1.02.037-1.255.592-2.275 6.247-3.531 12.713-3.767 19.472-.156 5.06-.077 10.335.629 15.354.313 2.079.627 4.12 1.02 6.137-1.805 2.647-3.217 5.588-4.08 8.089-5.493 16.728 1.647 39.255 8.708 54.414.235.53.785.732 1.256.452.47-.282.628-.94.392-1.471C11.456 88.675 4.395 66.91 9.73 50.719c.627-1.904 1.648-4.09 2.903-6.169Zm1.491-2.165c.157.956.392 1.905.706 2.852.706 2.285 1.333 4.97 2.589 6.935 1.412 2.125 2.982 3.033 4.55 3.015 2.512-.03 4.865-2.182 6.356-4.957 1.569-2.805 2.354-6.3 1.334-9.13-.628-1.823-1.962-3.326-4.237-4.173-2.825-1.039-5.492-.117-7.767 1.715-1.334 1.019-2.511 2.317-3.531 3.743Z" clip-rule="evenodd"/><path fill="#fff" fill-rule="evenodd" d="M17.574 104.53c-.392-.315-.784-.786-1.177-1.259-.784-.908-1.49-1.871-2.118-2.378-3.766-3.124-8.317-6.817-12.789-8.455-.47-.185-1.02.129-1.177.7-.157.57.079 1.184.628 1.37 4.237 1.571 8.552 5.148 12.24 8.146.628.548 1.49 1.709 2.275 2.64.706.79 1.412 1.419 2.118 1.648.393.161 1.099-.018 1.57-1.024.627-1.425 1.177-5.383 1.255-5.766.785-3.882 1.57-7.297 4.55-9.748.393-.352.471-1.034.236-1.519-.314-.485-.942-.592-1.334-.238-3.374 2.793-4.472 6.618-5.335 11.043 0 .282-.314 2.648-.785 4.292-.078.178-.078.373-.157.548Z" clip-rule="evenodd"/></svg>