<svg xmlns="http://www.w3.org/2000/svg" width="58" height="58" fill="none"><g clip-path="url(#a)"><path fill="#fff" fill-rule="evenodd" d="M14.321 35.069c1.24-1.554 2.447-3.345 3.061-5.237.73-2.246.32-4.302-.351-6.318-.862-2.59-2.138-5.127-2.887-7.791-.28-.99-.011-1.595.1-1.86a2.613 2.613 0 0 1 1.235-1.34c.594-.31 1.507-.58 2.61.055.158.09.381.239.622.484.176.18.61.812.826 1.05a59.495 59.495 0 0 1 1.558 1.79c1.696 2.015 3.049 3.781 5.33 5.185 3.097 1.905 5.531 2.736 7.876 2.32 2.267-.404 4.355-1.888 6.78-4.177.225-.228.452-.445.683-.65a2.689 2.689 0 0 1 3.665 3.935c-.219.213-.436.42-.652.622-3.177 3.256-5.465 9.265-6.19 13.734-.222 1.377.19 4.587.018 6.904-.127 1.71-.61 3.083-1.249 3.86-.428.52-.902.775-1.338.916a2.743 2.743 0 0 1-1.914-.066 3.018 3.018 0 0 1-1.1-.768c-.173-.188-.513-.727-.664-.972-.742-.668-1.526-1.284-2.247-1.975-1.72-1.649-3.478-2.278-5.669-3.19-2.05-.854-3.828-1.088-6.034-.785-.26.084-2.35.765-3.149.908-1.168.206-2.003-.143-2.374-.38a3.018 3.018 0 0 1-1.172-1.336 2.866 2.866 0 0 1-.124-2.092c.14-.453.434-.991.963-1.493.409-.389 1.618-1.217 1.787-1.333Zm8.666-9.8c.2.136.407.269.62.4 4.535 2.79 8.202 3.645 11.636 3.033l.114-.021c-.994 2.51-1.714 5.073-2.08 7.33-.15.928-.068 2.612-.021 4.363-2.057-1.794-4.145-2.67-6.763-3.76-2-.833-3.821-1.263-5.77-1.326.73-1.213 1.352-2.49 1.775-3.793.705-2.17.785-4.228.489-6.225Z" clip-rule="evenodd"/></g><defs><clipPath id="a"><path fill="#fff" d="M0 22.112 35.66 0l22.112 35.66-35.66 22.112z"/></clipPath></defs></svg>