<svg xmlns="http://www.w3.org/2000/svg" width="60" height="60" fill="none"><g clip-path="url(#a)"><path fill="#fff" fill-rule="evenodd" d="M19.406 17.5c1.85.727 3.917 1.353 5.905 1.384 2.362.037 4.206-.96 5.935-2.195 2.222-1.585 4.271-3.551 6.598-5.052.863-.557 1.52-.48 1.806-.45a2.612 2.612 0 0 1 1.644.786c.472.475.997 1.269.716 2.51-.04.177-.116.435-.28.736-.12.221-.597.823-.76 1.1-.403.682-.824 1.349-1.252 2.014-1.427 2.215-2.718 4.027-3.388 6.62-.91 3.52-.987 6.092.1 8.21 1.053 2.048 3.086 3.608 5.988 5.252.284.147.558.3.822.46a2.689 2.689 0 0 1-2.683 4.661c-.268-.146-.53-.292-.787-.44-4.046-2.078-10.463-2.497-14.947-1.874-1.382.192-4.327 1.53-6.593 2.048-1.67.38-3.126.324-4.056-.058a2.794 2.794 0 0 1-1.27-1.01 2.743 2.743 0 0 1-.5-1.849c.032-.376.143-.82.41-1.277.13-.22.544-.704.735-.92.42-.906.778-1.836 1.226-2.728 1.07-2.13 1.153-3.995 1.38-6.357.214-2.211-.086-3.979-1.024-5.998-.157-.223-1.423-2.02-1.795-2.743-.54-1.055-.452-1.956-.335-2.38.199-.72.56-1.186.931-1.514a2.866 2.866 0 0 1 1.964-.734c.474 0 1.075.123 1.71.482.491.276 1.639 1.188 1.8 1.315Zm11.915 5.398c-.07.231-.137.468-.2.71-1.332 5.156-1.07 8.912.525 12.014l.055.103c-2.692-.212-5.353-.146-7.617.169-.932.129-2.518.703-4.178 1.263 1.11-2.494 1.332-4.746 1.605-7.57.207-2.157.082-4.024-.431-5.905 1.374.34 2.778.56 4.148.58 2.282.036 4.271-.493 6.093-1.364Z" clip-rule="evenodd"/></g><defs><clipPath id="a"><path fill="#fff" d="m27.575 0 31.626 27.575-27.575 31.626L0 31.626z"/></clipPath></defs></svg>