<svg xmlns="http://www.w3.org/2000/svg" width="37" height="37" fill="none"><g clip-path="url(#a)"><path fill="#fff" fill-rule="evenodd" d="M11.921 10.75c1.137.447 2.407.832 3.628.851 1.451.023 2.584-.59 3.646-1.348 1.365-.974 2.624-2.182 4.053-3.104.53-.342.934-.295 1.11-.277a1.61 1.61 0 0 1 1.01.483c.29.292.612.78.44 1.542a1.772 1.772 0 0 1-.172.453c-.074.135-.367.505-.468.675-.247.42-.505.829-.769 1.238-.876 1.36-1.67 2.473-2.08 4.066-.56 2.163-.607 3.743.061 5.044.646 1.258 1.895 2.216 3.678 3.226.174.09.343.185.505.283a1.652 1.652 0 0 1-1.648 2.863c-.165-.09-.326-.18-.483-.27-2.486-1.277-6.428-1.534-9.182-1.152-.85.119-2.66.94-4.05 1.258-1.027.235-1.921.2-2.492-.035a1.717 1.717 0 0 1-.78-.62 1.685 1.685 0 0 1-.308-1.136 1.87 1.87 0 0 1 .252-.785c.08-.135.334-.432.451-.565.258-.557.478-1.128.754-1.676.657-1.308.708-2.454.848-3.905.13-1.358-.054-2.444-.63-3.685-.096-.137-.874-1.241-1.102-1.684-.333-.65-.278-1.202-.206-1.463.122-.443.344-.728.572-.93a1.76 1.76 0 0 1 1.206-.45c.291 0 .66.075 1.05.295.303.17 1.008.73 1.107.808Zm7.32 3.317c-.043.142-.084.287-.122.436-.819 3.167-.658 5.474.322 7.38l.033.063c-1.653-.13-3.288-.089-4.679.104-.572.08-1.547.433-2.566.776.681-1.532.818-2.916.986-4.65.127-1.325.05-2.472-.265-3.628.844.21 1.706.344 2.548.357 1.402.022 2.624-.303 3.743-.838Z" clip-rule="evenodd"/></g><defs><clipPath id="a"><path fill="#fff" d="m16.94 0 19.428 16.94-16.94 19.428L0 19.428z"/></clipPath></defs></svg>